<?xml version="1.0" standalone="no"?>
<!DOCTYPE svg PUBLIC "-//W3C//DTD SVG 20010904//EN"
 "http://www.w3.org/TR/2001/REC-SVG-20010904/DTD/svg10.dtd">
<svg version="1.0" xmlns="http://www.w3.org/2000/svg"
 width="45" height="45" viewBox="0 0 64.000000 64.000000"
 preserveAspectRatio="xMidYMid meet">

<g transform="translate(0.000000,64.000000) scale(0.100000,-0.100000)"
fill="#de981f" stroke="none">
<path d="M326 523 c-97 -48 -176 -93 -176 -100 0 -17 2 -16 46 5 27 12 38 14
41 5 26 -77 142 -95 188 -29 18 25 20 97 3 114 -9 9 -9 15 -1 23 17 17 43 3
43 -24 0 -13 7 -32 15 -43 8 -10 15 -35 15 -55 0 -20 3 -39 6 -42 4 -3 7 -29
7 -57 0 -28 -3 -54 -7 -57 -3 -3 -6 -22 -6 -42 0 -20 -7 -45 -15 -55 -8 -11
-15 -30 -15 -43 0 -13 -6 -26 -14 -29 -8 -3 -55 15 -104 40 l-91 46 11 30 c19
57 -25 120 -85 120 -61 0 -97 -46 -97 -125 0 -25 -4 -45 -10 -45 -5 0 -10 25
-10 55 0 44 -4 57 -20 67 -27 17 -27 64 0 73 22 7 26 20 10 30 -14 9 -60 -40
-60 -63 0 -11 9 -30 19 -44 12 -15 21 -44 23 -73 2 -32 9 -52 21 -59 25 -16
51 4 55 42 l3 31 194 -96 c175 -87 197 -95 220 -85 27 13 65 67 65 95 0 30
-15 19 -38 -28 -16 -34 -27 -45 -44 -45 -33 0 -55 15 -34 23 10 4 16 18 16 36
0 16 7 36 15 44 9 10 13 26 9 44 -3 17 1 36 9 48 11 14 12 25 4 42 -7 16 -7
30 0 46 8 17 7 28 -4 42 -8 12 -12 31 -9 48 4 18 0 34 -9 44 -8 8 -15 28 -15
44 0 18 -6 32 -16 36 -21 8 1 23 34 23 19 0 29 -13 55 -67 27 -58 32 -82 35
-163 2 -52 5 -102 8 -110 10 -29 24 13 24 72 0 142 -66 298 -126 298 -6 0 -91
-39 -188 -87z m84 -22 c26 -50 -13 -114 -68 -114 -33 0 -82 35 -82 60 0 12
103 72 127 73 7 0 17 -9 23 -19z m-186 -212 c25 -20 33 -50 20 -83 -5 -13 -15
-11 -65 14 -32 17 -59 34 -59 39 0 13 49 51 65 51 7 0 24 -9 39 -21z"/>
<path d="M360 470 c0 -5 5 -10 10 -10 6 0 10 5 10 10 0 6 -4 10 -10 10 -5 0
-10 -4 -10 -10z"/>
<path d="M310 441 c0 -6 5 -13 10 -16 6 -3 10 1 10 9 0 9 -4 16 -10 16 -5 0
-10 -4 -10 -9z"/>
<path d="M180 270 c0 -5 7 -10 15 -10 8 0 15 5 15 10 0 6 -7 10 -15 10 -8 0
-15 -4 -15 -10z"/>
<path d="M100 400 c0 -5 5 -10 10 -10 6 0 10 5 10 10 0 6 -4 10 -10 10 -5 0
-10 -4 -10 -10z"/>
<path d="M190 380 c0 -5 4 -10 9 -10 6 0 13 5 16 10 3 6 -1 10 -9 10 -9 0 -16
-4 -16 -10z"/>
<path d="M450 350 c0 -5 5 -10 10 -10 6 0 10 5 10 10 0 6 -4 10 -10 10 -5 0
-10 -4 -10 -10z"/>
<path d="M342 288 c-15 -15 -15 -51 0 -66 27 -27 98 -2 98 35 0 33 -73 56 -98
31z m66 -31 c4 -22 -24 -33 -43 -17 -12 10 -13 16 -4 27 16 18 43 13 47 -10z"/>
<path d="M600 190 c0 -5 5 -10 10 -10 6 0 10 5 10 10 0 6 -4 10 -10 10 -5 0
-10 -4 -10 -10z"/>
<path d="M410 170 c0 -5 5 -10 10 -10 6 0 10 5 10 10 0 6 -4 10 -10 10 -5 0
-10 -4 -10 -10z"/>
</g>
</svg>
